<svg width="359" height="172" viewBox="0 0 359 172" fill="none" xmlns="http://www.w3.org/2000/svg">
<path fill-rule="evenodd" clip-rule="evenodd" d="M25.3039 54.6415C25.3039 48.1093 30.5993 42.814 37.1314 42.814H302.89C309.423 42.814 314.718 48.1093 314.718 54.6415C314.718 61.1737 309.423 66.4691 302.89 66.4691H37.1314C30.5993 66.4691 25.3039 61.1737 25.3039 54.6415ZM63.2598 78.2969C63.2598 71.7647 68.5551 66.4693 75.0873 66.4693H340.846C347.378 66.4693 352.674 71.7647 352.674 78.2969C352.674 84.8291 347.378 90.1244 340.846 90.1244H298.146C298.947 90.1244 299.729 90.204 300.485 90.3556C295.072 91.441 290.996 96.2204 290.996 101.952C290.996 107.684 295.072 112.463 300.485 113.548C299.729 113.7 298.947 113.78 298.146 113.78H317.124C323.656 113.78 328.951 119.075 328.951 125.607C328.951 132.139 323.656 137.435 317.124 137.435H75.0873C68.5552 137.435 63.2598 132.139 63.2598 125.607C63.2598 119.075 68.5551 113.78 75.0873 113.78H11.8275C5.29537 113.78 0 108.484 0 101.952C0 95.4198 5.29538 90.1244 11.8276 90.1244H75.0873C68.5551 90.1244 63.2598 84.8291 63.2598 78.2969ZM347.139 137.435C353.69 137.435 359 132.139 359 125.607C359 119.075 353.69 113.78 347.139 113.78C340.588 113.78 335.278 119.075 335.278 125.607C335.278 132.139 340.588 137.435 347.139 137.435Z" fill="#F3F7FF"/>
<path d="M104.65 39.9192L120.651 134.976C121.318 138.937 124.986 141.544 128.958 140.881L213.761 126.72C217.733 126.056 220.347 122.4 219.68 118.439L201.105 8.09249C200.439 4.13179 196.771 1.52455 192.798 2.18787L121.113 14.1584L104.65 39.9192Z" fill="white" stroke="#ACC2EE" stroke-width="4" stroke-miterlimit="10"/>
<path d="M109.756 42.0647L124.533 129.953C125.149 133.615 128.477 136.035 132.072 135.434L208.803 122.606C212.397 122.005 214.752 118.635 214.136 114.973L196.982 12.9477C196.366 9.28566 193.038 6.86523 189.444 7.46611L124.582 18.3098L109.756 42.0647Z" fill="#E8F0FD"/>
<path d="M149.309 44.267L132.098 145.612C131.381 149.835 134.163 153.739 138.397 154.454L228.804 169.72C233.038 170.435 236.954 167.662 237.671 163.439L257.65 45.7923C258.367 41.5696 255.586 37.6653 251.351 36.9502L174.929 24.0457L149.309 44.267Z" fill="white" stroke="#ACC2EE" stroke-width="4" stroke-miterlimit="10"/>
<path d="M177.24 25.9515L172.904 51.4842L149.268 47.4931" stroke="#ACC2EE" stroke-width="4" stroke-miterlimit="10"/>
<path d="M228.999 76.1093L169.122 65.9985L168.205 71.3997L228.082 81.5105L228.999 76.1093Z" fill="#ACC2EE"/>
<path d="M226.815 88.9746L166.938 78.8638L166.02 84.2649L225.897 94.3757L226.815 88.9746Z" fill="#ACC2EE"/>
<path d="M200.095 96.5847L164.937 90.6479L164.019 96.0491L199.177 101.986L200.095 96.5847Z" fill="#ACC2EE"/>
</svg>
